# xmcd
#
# Track frame offsets:
#	150
#	14488
#	34588
#	50392
#	66319
#	88851
#	105884
#	122654
#	137371
#	151685
#	168581
#	186846
#	198276
#	214146
#	229432
#	247332
#	268688
#	286167
#	300321
#	312729
#
# Disc length: 4395 seconds
#
# Revision: 1
# Processed by: cddbd v1.5.1PL0 Copyright (c) Steve Scherf et al.
# Submitted via: audiograbber 1.80
#
DISCID=1b112914
DTITLE=Various Artist - 20 Grootste Dansvloer Treffers
DYEAR=1900
DGENRE=
TTITLE0=Fancy - Flames of love
TTITLE1=Whigfield - WhigField Mega Mix
TTITLE2=Smokie - Mexican Girl
TTITLE3=Exile - Part of me that needs you most
TTITLE4=B and M - BZN Mega mix
TTITLE5=George Baker - La Paloma
TTITLE6=Joe'e - Angel
TTITLE7=Touch of Class - Bona Lee, Bona La
TTITLE8=Don Kelly - I Like It, I Love It
TTITLE9=Alphaville - Forever Young
TTITLE10=Laura Brannigan - Ti Amo
TTITLE11=Deon Roberts - Take Me
TTITLE12=Sugar and Spice - Bum Di Bum
TTITLE13=Ronell Erasmus - Dans met my
TTITLE14=Titanic Remix - My Heart Will Go On
TTITLE15=Silc and Silky - Mississipi
TTITLE16=Clive Bruce - Have you ever seen the rain
TTITLE17=Rocking Horse - Down South in New Orleans
TTITLE18=Die Wonder Dansorkes - Die Wonder-Tekno  Vastrap
TTITLE19=Mad Cowboy - Apache
EXTD=
EXTT0=
EXTT1=
EXTT2=
EXTT3=
EXTT4=
EXTT5=
EXTT6=
EXTT7=
EXTT8=
EXTT9=
EXTT10=
EXTT11=
EXTT12=
EXTT13=
EXTT14=
EXTT15=
EXTT16=
EXTT17=
EXTT18=
EXTT19=
PLAYORDER=
